<svg width="32" height="20" viewBox="0 0 32 20" fill="none" xmlns="http://www.w3.org/2000/svg">
<path fill-rule="evenodd" clip-rule="evenodd" d="M3.67301 9.30963L14.6953 4.99018L6.94408 1.74903C4.82252 0.861909 2.37221 1.836 1.47114 3.92473C0.571211 6.01083 1.55698 8.41979 3.67301 9.30963ZM2.49715 9.84832C0.39599 8.52367 -0.491191 5.86244 0.516863 3.5257C1.64177 0.918092 4.70079 -0.297984 7.34938 0.809519L16.0643 4.45366L24.8614 1.00621C27.535 -0.0415165 30.565 1.24295 31.6292 3.87514C32.5829 6.23391 31.6342 8.87451 29.503 10.1516C31.6042 11.4763 32.4914 14.1375 31.4833 16.4743C30.3584 19.0819 27.2994 20.298 24.6508 19.1905L15.9358 15.5463L7.13859 18.9938C4.46503 20.0415 1.43498 18.7571 0.370788 16.1249C-0.582871 13.7661 0.365782 11.1254 2.49715 9.84832ZM4.67742 10.8386L3.9558 11.1214C2.21324 11.8043 1.36291 13.7487 2.05652 15.4642C2.75013 17.1798 4.72504 18.017 6.46759 17.3341L13.5623 14.5538L4.67742 10.8386ZM17.3049 15.0098L25.0561 18.251C27.1777 19.1381 29.628 18.164 30.529 16.0753C31.429 13.9891 30.4432 11.5801 28.3271 10.6903L17.3049 15.0098ZM25.9536 9.69785L14.9314 14.0173L6.04649 10.3021L17.0687 5.98265L25.9536 9.69785ZM27.3227 9.16134L28.0442 8.87859C29.7868 8.1957 30.6371 6.25135 29.9435 4.53576C29.2499 2.82016 27.275 1.98298 25.5324 2.66586L18.4378 5.44613L27.3227 9.16134Z" fill="#CEB78B"/>
</svg>
