<svg width="32" height="32" viewBox="0 0 32 32" fill="none" xmlns="http://www.w3.org/2000/svg">
<path d="M0.169643 0H2.89319V2.69468H0.169643V0Z" fill="#CEB78B"/>
<path d="M28.7649 0H31.4884V2.69468H28.7649V0Z" fill="#CEB78B"/>
<path d="M0.169643 28.9673H2.89319V31.6619H0.169643V28.9673Z" fill="#CEB78B"/>
<path d="M28.7649 28.9673H31.4884V31.6619H28.7649V28.9673Z" fill="#CEB78B"/>
<path fill-rule="evenodd" clip-rule="evenodd" d="M9.56339 29.3424C13.0219 32.8859 18.6395 32.8859 22.098 29.3424C25.5436 25.8121 25.5436 20.0979 22.098 16.5676L21.0875 15.5323L20.108 16.4683L21.1184 17.5036C24.0545 20.5117 24.0545 25.3983 21.1184 28.4065C18.1953 31.4014 13.4661 31.4014 10.543 28.4065C7.60693 25.3983 7.60693 20.5117 10.543 17.5036L11.5535 16.4683L10.5739 15.5323L9.56339 16.5676C6.11776 20.0979 6.11776 25.8121 9.56339 29.3424Z" fill="#CEB78B"/>
<path fill-rule="evenodd" clip-rule="evenodd" d="M22.0973 2.6576C18.6388 -0.885867 13.0212 -0.885868 9.5627 2.6576C6.11707 6.18785 6.11707 11.9021 9.5627 15.4324L10.5732 16.4677L11.5528 15.5317L10.5423 14.4964C7.60624 11.4883 7.60624 6.60169 10.5423 3.59354C13.4654 0.598608 18.1946 0.598608 21.1177 3.59354C24.0538 6.60169 24.0538 11.4883 21.1177 14.4964L20.1073 15.5317L21.0868 16.4677L22.0973 15.4324C25.543 11.9021 25.543 6.18785 22.0973 2.6576Z" fill="#CEB78B"/>
<path fill-rule="evenodd" clip-rule="evenodd" d="M2.63409 9.75064C-0.878032 13.1063 -0.878032 18.5545 2.63409 21.9101C6.1362 25.2562 11.8071 25.2562 15.3092 21.9101L21.6724 15.8304L15.3092 9.75064C11.8071 6.40455 6.1362 6.40455 2.63409 9.75064ZM3.34357 21.1832C0.247252 18.2248 0.247252 13.4359 3.34357 10.4775C6.4499 7.50959 11.4934 7.50959 14.5997 10.4775L20.2022 15.8304L14.5997 21.1832C11.4934 24.1512 6.4499 24.1512 3.34357 21.1832Z" fill="#CEB78B"/>
<path fill-rule="evenodd" clip-rule="evenodd" d="M29.3659 21.9101C32.878 18.5544 32.878 13.1063 29.3659 9.75061C25.8638 6.40451 20.1929 6.40451 16.6908 9.7506L10.3276 15.8303L16.6908 21.9101C20.1929 25.2562 25.8638 25.2562 29.3659 21.9101ZM28.6564 10.4775C31.7527 13.4359 31.7527 18.2248 28.6564 21.1832C25.5501 24.1511 20.5066 24.1511 17.4003 21.1832L11.7978 15.8303L17.4003 10.4775C20.5066 7.50956 25.5501 7.50956 28.6564 10.4775Z" fill="#CEB78B"/>
</svg>
